<?xml version="1.0" encoding="UTF-8" ?>
<!DOCTYPE svg PUBLIC "-//W3C//DTD SVG 1.1//EN" "http://www.w3.org/Graphics/SVG/1.1/DTD/svg11.dtd">
<svg width="1440pt" height="569pt" viewBox="0 0 1440 569" version="1.1" xmlns="http://www.w3.org/2000/svg">
<g id="#ffffffff">
</g>
<g id="#3777acff">
<path fill="#3777ac" opacity="1.00" d=" M 211.92 59.15 C 237.91 57.14 264.24 57.75 289.77 63.34 C 300.98 66.51 312.87 69.16 322.14 76.65 C 312.73 73.41 303.53 69.30 293.71 67.45 C 290.86 66.70 288.79 69.21 286.91 70.91 C 272.02 86.35 256.54 101.21 241.57 116.58 C 229.98 129.83 216.70 141.47 204.78 154.42 C 216.02 156.18 227.43 156.02 238.72 157.31 L 238.93 158.20 C 203.05 158.00 167.15 158.50 131.27 157.93 C 131.43 140.28 131.28 122.63 131.30 104.98 C 131.38 92.66 140.45 82.63 150.18 76.18 C 168.51 64.42 190.66 61.20 211.92 59.15 M 171.36 93.46 C 163.32 96.03 157.87 104.66 158.50 113.02 C 158.73 122.62 167.44 131.03 176.99 131.19 C 189.45 132.13 200.06 118.92 196.85 107.00 C 194.09 96.31 181.78 89.86 171.36 93.46 Z" />
</g>
<g id="#3772a3ff">
<path fill="#3772a3" opacity="1.00" d=" M 286.91 70.91 C 288.79 69.21 290.86 66.70 293.71 67.45 C 303.53 69.30 312.73 73.41 322.14 76.65 C 336.41 83.94 346.87 99.69 346.34 116.00 C 346.20 142.66 346.34 169.33 346.29 196.00 C 346.22 203.45 346.73 210.93 345.66 218.33 C 342.52 201.09 344.99 183.51 343.75 166.12 C 343.14 158.69 342.98 151.23 342.77 143.78 C 330.73 154.37 320.17 166.51 308.60 177.61 C 289.02 197.35 269.22 216.89 249.73 236.74 C 238.55 247.44 227.54 258.35 217.05 269.75 C 227.04 270.92 237.11 270.99 247.12 271.78 C 261.31 272.75 275.56 271.36 289.74 272.45 C 282.55 273.64 275.25 273.09 268.00 273.15 C 237.66 273.19 207.32 273.12 176.98 273.17 C 162.49 273.33 147.32 277.42 136.55 287.56 C 124.07 299.12 117.91 316.30 117.23 333.03 C 116.94 351.70 117.39 370.37 117.03 389.03 C 98.80 388.42 79.84 391.65 62.23 385.64 C 47.53 379.26 34.97 366.52 29.85 351.28 C 29.30 345.61 27.68 340.14 26.40 334.62 C 25.75 332.55 26.49 330.48 28.04 329.05 C 35.93 320.93 44.21 313.21 52.53 305.53 C 92.16 265.83 131.88 226.21 171.58 186.58 C 175.97 182.66 179.96 177.28 186.14 176.32 C 198.18 175.18 210.35 175.68 222.36 174.07 C 227.85 173.23 233.42 173.45 238.95 173.68 C 239.31 168.54 239.89 163.31 238.93 158.20 L 238.72 157.31 C 227.43 156.02 216.02 156.18 204.78 154.42 C 216.70 141.47 229.98 129.83 241.57 116.58 C 256.54 101.21 272.02 86.35 286.91 70.91 Z" />
</g>
<g id="#394e55ff">
<path fill="#394e55" opacity="1.00" d=" M 1075.27 87.33 C 1099.54 87.47 1123.82 87.47 1148.10 87.33 C 1148.84 127.82 1148.32 168.35 1148.36 208.86 C 1169.09 209.92 1189.88 209.03 1210.63 209.33 C 1210.60 229.96 1210.29 250.60 1210.78 271.22 C 1236.21 271.55 1262.85 273.31 1286.75 262.92 C 1291.65 260.70 1297.33 260.02 1301.72 256.76 C 1303.84 255.16 1302.41 252.48 1301.34 250.72 C 1293.63 239.37 1290.95 225.46 1289.80 212.01 C 1288.66 202.32 1291.68 192.81 1291.35 183.12 C 1291.72 183.70 1292.11 184.27 1292.52 184.85 C 1293.76 171.49 1301.61 159.65 1311.18 150.66 C 1315.56 151.62 1318.44 155.49 1321.89 158.07 C 1330.46 164.87 1337.99 172.96 1343.95 182.15 C 1347.92 187.79 1351.53 193.87 1352.70 200.78 C 1352.90 199.91 1353.12 199.05 1353.36 198.19 C 1355.03 204.35 1356.54 210.56 1357.92 216.80 C 1372.56 212.94 1387.92 213.25 1402.89 214.56 C 1414.87 217.30 1427.01 221.37 1436.77 229.07 C 1430.75 243.56 1421.30 257.47 1407.39 265.40 C 1394.06 273.62 1378.77 279.10 1362.98 279.11 C 1356.68 279.91 1350.07 278.52 1343.94 279.95 C 1337.68 292.72 1332.23 305.91 1325.31 318.36 C 1348.95 322.03 1376.06 317.86 1393.37 299.98 C 1393.20 304.99 1393.92 310.54 1398.19 313.81 C 1407.50 321.66 1420.23 322.70 1431.24 327.02 C 1394.07 328.00 1356.86 327.03 1319.68 327.51 C 1299.20 362.12 1271.21 392.33 1237.88 414.94 C 1218.18 429.25 1196.21 440.58 1173.26 448.60 C 1173.73 448.85 1174.21 449.10 1174.71 449.36 C 1154.32 455.21 1134.22 462.48 1113.16 465.58 C 1093.41 469.98 1073.14 471.14 1053.01 472.40 C 1035.52 472.06 1017.89 473.47 1000.54 470.76 C 993.40 469.14 986.14 468.18 978.91 467.05 C 932.06 456.99 888.00 429.78 862.16 388.83 C 856.88 381.60 853.05 373.49 849.91 365.14 C 847.48 359.36 844.70 353.57 844.48 347.18 C 844.16 347.70 843.85 348.22 843.55 348.75 C 841.80 341.70 840.35 334.58 839.50 327.37 C 811.95 327.22 784.38 327.89 756.84 327.03 C 768.01 322.26 781.36 322.36 790.54 313.52 C 795.07 310.54 795.24 304.84 795.52 299.98 C 806.46 311.27 822.01 318.47 837.82 318.40 C 837.45 302.71 837.30 287.01 838.42 271.36 C 856.16 271.26 873.93 271.95 891.65 271.00 C 891.70 250.43 891.23 229.85 891.88 209.29 C 912.16 209.12 932.46 209.80 952.72 208.94 C 952.97 188.73 952.24 168.49 953.09 148.29 C 993.70 148.23 1034.31 148.61 1074.91 148.11 C 1075.58 127.86 1074.89 107.59 1075.27 87.33 M 1085.46 97.46 C 1085.47 115.07 1084.90 132.75 1085.69 150.32 C 1103.33 151.22 1121.09 150.36 1138.78 150.70 C 1139.10 132.91 1139.04 115.10 1138.78 97.31 C 1121.01 97.49 1103.23 97.20 1085.46 97.46 M 1024.36 157.45 C 1023.30 175.60 1023.78 193.84 1024.09 212.01 C 1039.39 212.78 1054.72 212.06 1070.04 212.42 C 1072.80 212.17 1078.11 213.18 1077.70 208.87 C 1077.81 192.96 1077.86 177.00 1077.68 161.09 C 1078.15 157.21 1073.76 157.20 1071.07 157.26 C 1055.50 157.51 1039.92 157.18 1024.36 157.45 M 1085.42 158.42 C 1085.21 175.96 1085.46 193.51 1085.29 211.05 C 1103.12 211.56 1121.00 211.58 1138.83 211.04 C 1138.96 193.46 1139.01 175.87 1138.80 158.30 C 1121.00 158.44 1103.21 158.21 1085.42 158.42 M 962.85 158.86 C 962.74 176.16 962.00 193.58 963.17 210.82 C 980.66 211.95 998.34 211.34 1015.89 211.07 C 1016.26 193.68 1016.21 176.27 1015.91 158.89 C 998.23 158.43 980.53 158.49 962.85 158.86 M 1309.31 167.25 C 1297.59 185.89 1298.74 208.79 1301.36 229.75 C 1301.73 229.26 1302.11 228.78 1302.51 228.29 C 1303.65 234.98 1306.71 241.14 1310.31 246.82 C 1313.01 250.54 1316.94 253.23 1319.22 257.30 C 1310.45 261.47 1303.30 268.81 1293.39 270.47 C 1293.79 270.83 1294.21 271.19 1294.65 271.56 C 1286.48 273.40 1278.75 277.11 1270.31 277.60 C 1267.26 277.83 1264.26 278.45 1261.44 279.62 C 1253.69 280.96 1245.81 280.25 1238.00 280.40 C 1108.09 280.35 978.17 280.53 848.26 280.32 C 848.23 280.70 848.17 281.47 848.13 281.85 C 847.22 294.23 847.34 306.71 848.28 319.09 C 857.20 319.98 866.10 318.39 875.03 318.69 C 873.33 318.28 871.65 317.87 869.98 317.45 C 871.25 317.39 872.53 317.33 873.83 317.27 C 884.85 316.96 894.93 311.79 903.58 305.31 C 913.25 316.55 928.83 319.86 943.00 320.39 C 962.72 320.52 982.45 320.88 1002.05 318.56 C 1000.34 318.18 998.64 317.81 996.94 317.43 C 1000.96 317.27 1004.97 317.01 1008.98 316.68 C 1008.01 316.25 1007.05 315.83 1006.10 315.42 C 1010.76 315.20 1015.38 314.46 1019.91 313.28 C 1021.42 312.64 1022.95 312.05 1024.48 311.42 C 1024.12 311.15 1023.78 310.88 1023.45 310.61 C 1028.55 309.65 1032.29 306.01 1035.81 302.48 C 1038.89 304.91 1041.80 307.63 1045.33 309.44 C 1049.90 313.97 1056.35 315.45 1062.22 317.57 C 1074.65 321.93 1088.02 321.38 1100.99 321.31 C 1110.80 320.71 1121.80 321.09 1130.20 315.24 C 1138.58 312.34 1146.93 308.32 1152.64 301.28 C 1159.76 310.39 1171.35 315.85 1182.93 315.37 C 1181.94 315.80 1180.97 316.24 1180.02 316.69 C 1184.04 317.04 1188.07 317.30 1192.12 317.44 C 1190.03 317.82 1187.96 318.20 1185.89 318.56 C 1195.00 318.43 1203.85 321.36 1213.01 320.88 C 1227.00 322.12 1241.00 320.45 1255.00 320.74 C 1253.64 320.30 1252.29 319.85 1250.96 319.41 C 1255.31 319.08 1259.66 318.78 1264.03 318.61 C 1262.67 318.21 1261.33 317.82 1260.00 317.42 C 1261.95 317.28 1263.92 317.14 1265.89 316.99 C 1274.10 316.52 1279.11 309.44 1285.89 306.36 C 1294.81 311.04 1304.13 316.40 1314.50 316.55 C 1322.57 306.64 1325.30 293.78 1331.95 283.05 C 1334.10 278.84 1334.65 274.02 1336.83 269.83 C 1349.99 268.35 1363.63 270.71 1376.71 267.62 C 1380.68 266.54 1384.64 265.40 1388.68 264.56 C 1388.21 264.20 1387.76 263.84 1387.32 263.48 C 1403.38 260.07 1416.49 247.47 1423.53 233.01 C 1418.30 229.51 1412.53 226.36 1406.02 226.72 C 1405.96 226.04 1405.92 225.35 1405.86 224.68 C 1388.28 222.74 1370.22 222.89 1353.30 228.53 C 1353.69 228.76 1354.09 228.99 1354.51 229.22 C 1353.31 229.87 1352.10 230.48 1351.01 231.26 C 1350.37 231.07 1349.09 230.68 1348.45 230.49 C 1348.25 220.59 1347.72 210.34 1343.64 201.17 C 1336.70 187.05 1326.91 174.30 1314.91 164.13 C 1312.49 161.92 1310.53 165.54 1309.31 167.25 M 901.23 219.28 C 901.12 236.80 901.11 254.32 901.23 271.84 C 919.06 272.36 936.93 272.33 954.76 271.86 C 954.82 254.33 954.82 236.80 954.75 219.28 C 936.91 219.33 919.07 219.31 901.23 219.28 M 962.70 219.70 C 961.81 237.02 962.70 254.45 962.30 271.82 C 980.14 272.41 998.03 272.29 1015.88 271.88 C 1016.26 254.36 1016.32 236.81 1015.83 219.29 C 998.13 219.65 980.36 218.74 962.70 219.70 M 1024.40 219.40 C 1024.09 236.89 1024.36 254.39 1024.26 271.88 C 1041.83 272.31 1059.42 272.28 1076.99 271.89 C 1077.40 254.37 1077.50 236.80 1076.94 219.28 C 1059.42 219.43 1041.91 219.18 1024.40 219.40 M 1085.42 219.42 C 1085.23 236.90 1085.47 254.39 1085.29 271.88 C 1103.12 272.29 1120.98 272.34 1138.81 271.84 C 1138.93 254.33 1138.97 236.81 1138.78 219.29 C 1120.99 219.43 1103.20 219.20 1085.42 219.42 M 1146.83 219.81 C 1146.54 237.18 1146.44 254.57 1146.88 271.94 C 1160.58 272.50 1174.29 271.93 1187.99 272.25 C 1192.12 272.39 1196.25 272.03 1200.32 271.30 C 1200.23 254.15 1200.64 237.00 1200.10 219.86 C 1182.35 219.44 1164.58 219.53 1146.83 219.81 M 849.11 327.93 C 849.24 328.96 849.37 329.99 849.52 331.03 C 850.53 338.86 853.47 346.24 856.32 353.54 C 860.61 368.62 869.51 381.84 878.36 394.60 C 893.64 395.39 908.99 395.74 924.28 394.98 C 939.48 396.21 954.55 392.97 969.60 391.31 C 977.60 390.22 985.09 386.18 993.33 386.78 C 994.43 392.27 989.51 395.07 985.09 396.48 C 982.19 396.74 979.34 397.30 976.58 398.20 C 968.83 399.54 961.09 401.07 953.52 403.23 C 944.99 401.45 936.53 404.04 928.02 404.33 C 913.90 404.58 899.77 404.10 885.66 404.31 C 888.12 407.49 890.97 410.35 894.07 412.92 C 905.85 423.09 918.01 433.36 932.48 439.48 C 932.16 439.83 931.85 440.18 931.56 440.54 C 948.33 446.57 964.36 456.99 982.81 456.25 C 982.23 456.83 981.66 457.41 981.11 458.00 C 985.44 458.31 989.78 458.41 994.13 458.36 C 991.69 458.71 989.25 459.09 986.83 459.45 C 1007.61 461.72 1028.65 463.80 1049.56 461.71 C 1055.89 463.66 1062.54 461.33 1069.01 461.46 C 1084.33 461.97 1099.13 457.33 1114.20 455.40 C 1123.16 453.79 1132.19 452.28 1140.97 449.83 C 1151.67 445.48 1163.23 443.68 1173.63 438.51 C 1195.77 428.11 1218.97 418.86 1237.84 402.87 C 1266.48 383.42 1289.09 356.47 1308.15 327.86 C 1289.21 326.75 1270.19 327.56 1251.22 327.43 C 1122.15 327.26 993.07 327.42 864.00 327.35 C 859.03 327.20 854.04 327.24 849.11 327.93 Z" />
<path fill="#394e55" opacity="1.00" d=" M 1122.33 102.22 C 1123.45 102.23 1124.58 102.24 1125.73 102.25 C 1125.97 116.75 1125.96 131.27 1125.73 145.77 C 1124.58 145.77 1123.44 145.78 1122.32 145.79 C 1122.34 131.27 1122.31 116.74 1122.33 102.22 Z" />
<path fill="#394e55" opacity="1.00" d=" M 1061.19 163.24 C 1062.34 163.24 1063.51 163.23 1064.69 163.23 C 1064.58 177.62 1064.81 192.01 1064.56 206.40 C 1063.34 206.65 1062.14 206.89 1060.95 207.14 L 1060.98 206.18 C 1061.44 192.18 1061.08 178.17 1061.19 164.17 L 1061.19 163.24 Z" />
<path fill="#394e55" opacity="1.00" d=" M 1122.35 223.24 C 1123.45 223.25 1124.57 223.26 1125.70 223.27 C 1126.05 238.08 1126.01 252.92 1125.73 267.73 C 1124.58 267.74 1123.46 267.76 1122.34 267.77 C 1122.31 252.93 1122.30 238.08 1122.35 223.24 Z" />
</g>
<g id="#23b8e2ff">
<path fill="#23b8e2" opacity="1.00" d=" M 1085.46 97.46 C 1103.23 97.20 1121.01 97.49 1138.78 97.31 C 1139.04 115.10 1139.10 132.91 1138.78 150.70 C 1121.09 150.36 1103.33 151.22 1085.69 150.32 C 1084.90 132.75 1085.47 115.07 1085.46 97.46 M 1106.32 102.22 C 1106.33 116.75 1106.34 131.27 1106.32 145.80 C 1107.45 145.79 1108.60 145.78 1109.75 145.77 C 1110.12 131.27 1110.13 116.75 1109.75 102.25 C 1108.59 102.24 1107.45 102.23 1106.32 102.22 M 1122.33 102.22 C 1122.31 116.74 1122.34 131.27 1122.32 145.79 C 1123.44 145.78 1124.58 145.77 1125.73 145.77 C 1125.96 131.27 1125.97 116.75 1125.73 102.25 C 1124.58 102.24 1123.45 102.23 1122.33 102.22 M 1130.91 102.25 C 1130.41 116.75 1130.48 131.29 1130.87 145.80 C 1131.62 145.80 1133.11 145.80 1133.86 145.80 C 1134.24 131.28 1134.24 116.74 1133.86 102.22 C 1133.13 102.22 1131.65 102.24 1130.91 102.25 M 1089.33 116.00 C 1089.38 125.99 1089.29 135.98 1089.31 145.97 C 1091.09 145.98 1092.89 146.00 1094.69 146.02 C 1094.72 133.65 1094.51 121.29 1094.80 108.92 C 1094.92 106.67 1094.33 104.48 1093.56 102.38 C 1092.78 102.38 1091.22 102.38 1090.44 102.38 C 1088.50 106.68 1089.38 111.46 1089.33 116.00 M 1097.90 102.88 C 1097.66 117.20 1097.46 131.54 1098.03 145.84 C 1098.81 145.84 1100.38 145.83 1101.16 145.83 C 1101.59 131.50 1101.43 117.15 1101.25 102.81 C 1100.41 102.83 1098.74 102.87 1097.90 102.88 M 1113.33 116.00 C 1113.38 125.99 1113.30 135.97 1113.31 145.95 C 1115.09 145.97 1116.88 145.98 1118.68 145.99 C 1118.75 133.64 1118.50 121.28 1118.81 108.93 C 1118.93 106.65 1118.35 104.44 1117.56 102.33 C 1116.78 102.35 1115.21 102.38 1114.43 102.39 C 1112.53 106.70 1113.38 111.46 1113.33 116.00 Z" />
</g>
<g id="#38535eff">
<path fill="#38535e" opacity="1.00" d=" M 1106.32 102.22 C 1107.45 102.23 1108.59 102.24 1109.75 102.25 C 1110.13 116.75 1110.12 131.27 1109.75 145.77 C 1108.60 145.78 1107.45 145.79 1106.32 145.80 C 1106.34 131.27 1106.33 116.75 1106.32 102.22 Z" />
<path fill="#38535e" opacity="1.00" d=" M 1106.14 223.00 C 1107.33 223.11 1108.54 223.22 1109.76 223.32 C 1110.30 238.09 1110.28 252.89 1109.77 267.66 C 1108.54 267.80 1107.31 267.93 1106.10 268.08 C 1106.53 253.37 1106.40 238.63 1106.17 223.92 L 1106.14 223.00 Z" />
</g>
<g id="#365b66ff">
<path fill="#365b66" opacity="1.00" d=" M 1130.91 102.25 C 1131.65 102.24 1133.13 102.22 1133.86 102.22 C 1134.24 116.74 1134.24 131.28 1133.86 145.80 C 1133.11 145.80 1131.62 145.80 1130.87 145.80 C 1130.48 131.29 1130.41 116.75 1130.91 102.25 Z" />
<path fill="#365b66" opacity="1.00" d=" M 1130.86 224.14 C 1131.62 224.14 1133.16 224.15 1133.92 224.15 C 1134.29 238.42 1134.28 252.71 1133.94 266.98 C 1133.16 267.02 1131.60 267.10 1130.83 267.14 C 1130.49 252.81 1130.44 238.46 1130.86 224.14 Z" />
</g>
<g id="#2d86a0ff">
<path fill="#2d86a0" opacity="1.00" d=" M 1089.33 116.00 C 1089.38 111.46 1088.50 106.68 1090.44 102.38 C 1091.40 116.82 1089.55 131.37 1091.47 145.74 C 1094.59 139.23 1093.17 131.93 1093.34 125.00 C 1093.43 117.46 1093.08 109.91 1093.56 102.38 C 1094.33 104.48 1094.92 106.67 1094.80 108.92 C 1094.51 121.29 1094.72 133.65 1094.69 146.02 C 1092.89 146.00 1091.09 145.98 1089.31 145.97 C 1089.29 135.98 1089.38 125.99 1089.33 116.00 Z" />
</g>
<g id="#375761ff">
<path fill="#375761" opacity="1.00" d=" M 1090.44 102.38 C 1091.22 102.38 1092.78 102.38 1093.56 102.38 C 1093.08 109.91 1093.43 117.46 1093.34 125.00 C 1093.17 131.93 1094.59 139.23 1091.47 145.74 C 1089.55 131.37 1091.40 116.82 1090.44 102.38 Z" />
</g>
<g id="#365863ff">
<path fill="#365863" opacity="1.00" d=" M 1097.90 102.88 C 1098.74 102.87 1100.41 102.83 1101.25 102.81 C 1101.43 117.15 1101.59 131.50 1101.16 145.83 C 1100.38 145.83 1098.81 145.84 1098.03 145.84 C 1097.46 131.54 1097.66 117.20 1097.90 102.88 Z" />
<path fill="#365863" opacity="1.00" d=" M 1098.01 224.03 C 1099.23 224.14 1100.46 224.25 1101.70 224.35 C 1102.12 238.71 1102.37 253.13 1101.61 267.48 C 1100.43 267.60 1099.27 267.72 1098.12 267.86 C 1097.35 253.27 1097.50 238.62 1098.01 224.03 Z" />
</g>
<g id="#2d859dff">
<path fill="#2d859d" opacity="1.00" d=" M 1113.33 116.00 C 1113.38 111.46 1112.53 106.70 1114.43 102.39 C 1115.79 116.67 1112.78 131.31 1116.03 145.35 C 1119.17 131.28 1116.25 116.63 1117.56 102.33 C 1118.35 104.44 1118.93 106.65 1118.81 108.93 C 1118.50 121.28 1118.75 133.64 1118.68 145.99 C 1116.88 145.98 1115.09 145.97 1113.31 145.95 C 1113.30 135.97 1113.38 125.99 1113.33 116.00 Z" />
</g>
<g id="#365a64ff">
<path fill="#365a64" opacity="1.00" d=" M 1114.43 102.39 C 1115.21 102.38 1116.78 102.35 1117.56 102.33 C 1116.25 116.63 1119.17 131.28 1116.03 145.35 C 1112.78 131.31 1115.79 116.67 1114.43 102.39 Z" />
<path fill="#365a64" opacity="1.00" d=" M 1114.13 224.16 C 1115.40 224.15 1116.69 224.15 1117.99 224.14 C 1118.48 238.66 1118.64 253.24 1117.89 267.75 C 1116.64 267.75 1115.42 267.74 1114.20 267.74 C 1113.62 253.23 1113.74 238.68 1114.13 224.16 Z" />
</g>
<g id="#366d9aff">
<path fill="#366d9a" opacity="1.00" d=" M 308.60 177.61 C 320.17 166.51 330.73 154.37 342.77 143.78 C 342.98 151.23 343.14 158.69 343.75 166.12 C 344.99 183.51 342.52 201.09 345.66 218.33 C 346.42 229.35 342.52 240.40 336.47 249.50 C 325.85 264.02 307.54 272.45 289.74 272.45 C 275.56 271.36 261.31 272.75 247.12 271.78 C 237.11 270.99 227.04 270.92 217.05 269.75 C 227.54 258.35 238.55 247.44 249.73 236.74 C 269.22 216.89 289.02 197.35 308.60 177.61 Z" />
</g>
<g id="#2c8aa5ff">
<path fill="#2c8aa5" opacity="1.00" d=" M 1024.36 157.45 C 1039.92 157.18 1055.50 157.51 1071.07 157.26 C 1073.76 157.20 1078.15 157.21 1077.68 161.09 C 1077.86 177.00 1077.81 192.96 1077.70 208.87 C 1078.11 213.18 1072.80 212.17 1070.04 212.42 C 1054.72 212.06 1039.39 212.78 1024.09 212.01 C 1023.78 193.84 1023.30 175.60 1024.36 157.45 M 1024.84 158.98 C 1024.55 176.05 1024.57 193.13 1024.84 210.20 C 1041.95 210.45 1059.07 210.45 1076.18 210.19 C 1076.45 193.13 1076.46 176.05 1076.18 158.98 C 1059.06 158.92 1041.95 158.92 1024.84 158.98 Z" />
</g>
<g id="#03a7ccff">
<path fill="#03a7cc" opacity="1.00" d=" M 1085.42 158.42 C 1103.21 158.21 1121.00 158.44 1138.80 158.30 C 1139.01 175.87 1138.96 193.46 1138.83 211.04 C 1121.00 211.58 1103.12 211.56 1085.29 211.05 C 1085.46 193.51 1085.21 175.96 1085.42 158.42 M 1090.13 163.23 C 1089.94 178.12 1088.84 193.18 1090.77 207.97 C 1091.77 207.52 1092.78 207.07 1093.80 206.62 C 1094.64 192.19 1094.47 177.67 1093.90 163.22 C 1092.63 163.23 1091.37 163.23 1090.13 163.23 M 1130.90 163.26 C 1130.46 177.75 1130.41 192.28 1130.94 206.77 C 1131.67 206.76 1133.12 206.76 1133.85 206.76 C 1134.34 192.25 1134.26 177.71 1133.90 163.20 C 1133.15 163.22 1131.65 163.25 1130.90 163.26 M 1097.86 163.89 C 1097.42 174.59 1097.86 185.30 1097.60 196.00 C 1097.59 199.60 1097.30 203.38 1098.92 206.72 C 1101.91 206.52 1101.09 203.10 1101.42 201.01 C 1101.31 188.62 1101.52 176.22 1101.25 163.82 C 1100.40 163.84 1098.71 163.87 1097.86 163.89 M 1106.29 163.91 C 1106.40 178.11 1106.11 192.32 1106.45 206.52 C 1107.54 206.61 1108.64 206.71 1109.76 206.81 C 1110.30 192.51 1110.19 178.19 1109.86 163.88 C 1108.65 163.89 1107.46 163.90 1106.29 163.91 M 1114.76 163.83 C 1114.46 176.22 1114.68 188.62 1114.57 201.01 C 1114.91 203.05 1114.01 206.56 1117.04 206.60 C 1118.72 203.70 1118.33 200.21 1118.41 197.01 C 1118.14 185.98 1118.58 174.94 1118.14 163.92 C 1117.30 163.89 1115.61 163.85 1114.76 163.83 M 1122.30 163.88 C 1122.48 177.18 1122.09 190.50 1122.44 203.78 C 1122.11 205.78 1124.35 205.85 1125.67 206.52 C 1126.16 192.32 1125.93 178.10 1125.80 163.90 C 1124.62 163.89 1123.45 163.88 1122.30 163.88 Z" />
<path fill="#03a7cc" opacity="1.00" d=" M 962.85 158.86 C 980.53 158.49 998.23 158.43 1015.91 158.89 C 1016.21 176.27 1016.26 193.68 1015.89 211.07 C 998.34 211.34 980.66 211.95 963.17 210.82 C 962.00 193.58 962.74 176.16 962.85 158.86 M 967.30 163.22 C 967.36 177.73 967.34 192.25 967.31 206.77 C 968.49 206.76 969.67 206.76 970.88 206.76 C 971.67 192.28 971.58 177.72 970.94 163.24 C 969.72 163.23 968.50 163.22 967.30 163.22 M 975.89 163.25 C 975.47 177.74 975.42 192.27 975.92 206.76 C 976.69 206.77 978.23 206.79 979.00 206.80 C 979.59 192.27 979.50 177.71 979.06 163.19 C 978.27 163.20 976.68 163.23 975.89 163.25 M 983.33 162.81 C 982.96 177.59 982.92 192.40 983.37 207.18 C 985.30 206.67 988.09 206.63 987.59 203.88 C 987.72 191.30 987.72 178.70 987.59 166.13 C 988.10 163.35 985.27 163.33 983.33 162.81 M 991.46 163.53 C 991.12 175.37 991.53 187.21 991.24 199.05 C 991.33 202.20 990.44 206.90 994.78 207.32 C 995.81 192.63 995.48 177.84 994.98 163.14 C 993.80 163.27 992.62 163.40 991.46 163.53 M 999.90 163.22 C 999.64 177.46 999.14 191.78 1000.08 205.99 C 1000.80 206.02 1002.24 206.09 1002.96 206.12 C 1003.80 191.87 1003.38 177.51 1003.09 163.22 C 1002.30 163.22 1000.70 163.22 999.90 163.22 M 1007.29 163.22 C 1007.36 177.73 1007.35 192.25 1007.31 206.77 C 1008.50 206.76 1009.71 206.76 1010.94 206.76 C 1011.65 192.28 1011.58 177.73 1010.98 163.25 C 1009.74 163.24 1008.51 163.23 1007.29 163.22 Z" />
</g>
<g id="#22bde8ff">
<path fill="#22bde8" opacity="1.00" d=" M 1024.84 158.98 C 1041.95 158.92 1059.06 158.92 1076.18 158.98 C 1076.46 176.05 1076.45 193.13 1076.18 210.19 C 1059.07 210.45 1041.95 210.45 1024.84 210.20 C 1024.57 193.13 1024.55 176.05 1024.84 158.98 M 1029.15 162.80 L 1029.21 163.60 C 1028.32 166.65 1027.78 169.80 1027.92 172.99 C 1028.24 184.31 1027.80 195.64 1028.20 206.96 C 1029.79 206.96 1031.39 206.98 1033.01 206.99 C 1034.20 199.04 1033.52 190.99 1033.64 183.00 C 1033.55 176.54 1034.34 169.98 1032.76 163.63 L 1032.82 162.83 C 1031.58 162.82 1030.36 162.81 1029.15 162.80 M 1036.50 165.28 C 1036.16 178.14 1036.40 191.04 1036.38 203.91 C 1035.95 206.49 1038.62 206.58 1040.43 207.03 C 1040.87 192.38 1040.79 177.70 1040.47 163.05 C 1039.02 163.61 1036.15 162.95 1036.50 165.28 M 1044.50 165.32 C 1044.06 179.11 1044.53 192.93 1044.33 206.74 C 1045.78 206.74 1047.25 206.74 1048.74 206.74 L 1048.73 205.79 C 1050.15 206.02 1051.57 206.27 1053.01 206.53 C 1053.11 208.45 1056.07 206.48 1057.32 206.46 C 1058.23 192.09 1057.34 177.61 1057.70 163.19 C 1057.31 163.19 1056.52 163.19 1056.12 163.19 C 1055.30 163.21 1053.64 163.25 1052.82 163.27 L 1052.80 164.20 C 1051.39 163.79 1050.00 163.38 1048.63 162.96 C 1047.13 163.56 1044.20 162.95 1044.50 165.32 M 1061.19 163.24 L 1061.19 164.17 C 1060.71 164.16 1059.76 164.15 1059.29 164.14 C 1059.33 176.12 1059.42 188.10 1059.22 200.09 C 1059.05 202.28 1059.82 204.35 1060.98 206.18 L 1060.95 207.14 C 1062.14 206.89 1063.34 206.65 1064.56 206.40 C 1064.81 192.01 1064.58 177.62 1064.69 163.23 C 1063.51 163.23 1062.34 163.24 1061.19 163.24 M 1068.41 166.13 C 1068.19 179.66 1068.45 193.21 1068.34 206.75 C 1069.79 206.74 1071.24 206.74 1072.72 206.74 C 1072.98 192.11 1073.09 177.46 1072.66 162.83 C 1070.70 163.34 1067.89 163.36 1068.41 166.13 Z" />
</g>
<g id="#2e5c69ff">
<path fill="#2e5c69" opacity="1.00" d=" M 967.30 163.22 C 968.50 163.22 969.72 163.23 970.94 163.24 C 971.58 177.72 971.67 192.28 970.88 206.76 C 969.67 206.76 968.49 206.76 967.31 206.77 C 967.34 192.25 967.36 177.73 967.30 163.22 Z" />
</g>
<g id="#325862ff">
<path fill="#325862" opacity="1.00" d=" M 975.89 163.25 C 976.68 163.23 978.27 163.20 979.06 163.19 C 979.50 177.71 979.59 192.27 979.00 206.80 C 978.23 206.79 976.69 206.77 975.92 206.76 C 975.42 192.27 975.47 177.74 975.89 163.25 Z" />
<path fill="#325862" opacity="1.00" d=" M 921.89 224.87 C 922.73 224.85 924.42 224.80 925.26 224.77 C 925.19 238.84 925.99 253.00 924.91 267.02 C 921.76 268.97 921.84 264.02 921.67 262.03 C 921.76 249.65 921.53 237.25 921.89 224.87 Z" />
<path fill="#325862" opacity="1.00" d=" M 1052.83 225.17 C 1053.72 224.90 1055.48 224.35 1056.37 224.08 C 1056.25 238.43 1056.67 252.80 1056.14 267.15 C 1055.33 267.07 1053.71 266.90 1052.90 266.82 C 1052.48 252.94 1052.53 239.05 1052.83 225.17 Z" />
</g>
<g id="#325965ff">
<path fill="#325965" opacity="1.00" d=" M 983.33 162.81 C 985.27 163.33 988.10 163.35 987.59 166.13 C 987.72 178.70 987.72 191.30 987.59 203.88 C 988.09 206.63 985.30 206.67 983.37 207.18 C 982.92 192.40 982.96 177.59 983.33 162.81 Z" />
</g>
<g id="#325863ff">
<path fill="#325863" opacity="1.00" d=" M 991.46 163.53 C 992.62 163.40 993.80 163.27 994.98 163.14 C 995.48 177.84 995.81 192.63 994.78 207.32 C 990.44 206.90 991.33 202.20 991.24 199.05 C 991.53 187.21 991.12 175.37 991.46 163.53 Z" />
<path fill="#325863" opacity="1.00" d=" M 1130.90 163.26 C 1131.65 163.25 1133.15 163.22 1133.90 163.20 C 1134.26 177.71 1134.34 192.25 1133.85 206.76 C 1133.12 206.76 1131.67 206.76 1130.94 206.77 C 1130.41 192.28 1130.46 177.75 1130.90 163.26 Z" />
</g>
<g id="#325761ff">
<path fill="#325761" opacity="1.00" d=" M 999.90 163.22 C 1000.70 163.22 1002.30 163.22 1003.09 163.22 C 1003.38 177.51 1003.80 191.87 1002.96 206.12 C 1002.24 206.09 1000.80 206.02 1000.08 205.99 C 999.14 191.78 999.64 177.46 999.90 163.22 Z" />
</g>
<g id="#335761ff">
<path fill="#335761" opacity="1.00" d=" M 1007.29 163.22 C 1008.51 163.23 1009.74 163.24 1010.98 163.25 C 1011.58 177.73 1011.65 192.28 1010.94 206.76 C 1009.71 206.76 1008.50 206.76 1007.31 206.77 C 1007.35 192.25 1007.36 177.73 1007.29 163.22 Z" />
</g>
<g id="#365d69ff">
<path fill="#365d69" opacity="1.00" d=" M 1029.15 162.80 C 1030.36 162.81 1031.58 162.82 1032.82 162.83 L 1032.76 163.63 C 1031.75 175.42 1032.49 187.26 1032.41 199.06 C 1032.42 201.53 1031.40 203.81 1030.44 206.02 C 1028.49 191.96 1030.59 177.71 1029.21 163.60 L 1029.15 162.80 Z" />
<path fill="#365d69" opacity="1.00" d=" M 1068.41 166.13 C 1067.89 163.36 1070.70 163.34 1072.66 162.83 C 1073.09 177.46 1072.98 192.11 1072.72 206.74 C 1071.24 206.74 1069.79 206.74 1068.34 206.75 C 1068.45 193.21 1068.19 179.66 1068.41 166.13 Z" />
</g>
<g id="#37545eff">
<path fill="#37545e" opacity="1.00" d=" M 1036.50 165.28 C 1036.15 162.95 1039.02 163.61 1040.47 163.05 C 1040.79 177.70 1040.87 192.38 1040.43 207.03 C 1038.62 206.58 1035.95 206.49 1036.38 203.91 C 1036.40 191.04 1036.16 178.14 1036.50 165.28 Z" />
</g>
<g id="#375863ff">
<path fill="#375863" opacity="1.00" d=" M 1044.50 165.32 C 1044.20 162.95 1047.13 163.56 1048.63 162.96 C 1048.75 177.24 1048.57 191.51 1048.73 205.79 L 1048.74 206.74 C 1047.25 206.74 1045.78 206.74 1044.33 206.74 C 1044.53 192.93 1044.06 179.11 1044.50 165.32 Z" />
</g>
<g id="#24b2dbff">
<path fill="#24b2db" opacity="1.00" d=" M 1048.63 162.96 C 1050.00 163.38 1051.39 163.79 1052.80 164.20 C 1052.67 178.00 1052.32 191.82 1052.90 205.61 L 1053.01 206.53 C 1051.57 206.27 1050.15 206.02 1048.73 205.79 C 1048.57 191.51 1048.75 177.24 1048.63 162.96 Z" />
</g>
<g id="#365965ff">
<path fill="#365965" opacity="1.00" d=" M 1052.82 163.27 C 1053.64 163.25 1055.30 163.21 1056.12 163.19 C 1056.55 174.47 1056.17 185.76 1056.47 197.05 C 1056.35 200.29 1057.32 205.15 1052.90 205.61 C 1052.32 191.82 1052.67 178.00 1052.80 164.20 L 1052.82 163.27 Z" />
</g>
<g id="#2a8da9ff">
<path fill="#2a8da9" opacity="1.00" d=" M 1056.12 163.19 C 1056.52 163.19 1057.31 163.19 1057.70 163.19 C 1057.34 177.61 1058.23 192.09 1057.32 206.46 C 1056.07 206.48 1053.11 208.45 1053.01 206.53 L 1052.90 205.61 C 1057.32 205.15 1056.35 200.29 1056.47 197.05 C 1056.17 185.76 1056.55 174.47 1056.12 163.19 Z" />
</g>
<g id="#315b66ff">
<path fill="#315b66" opacity="1.00" d=" M 1090.13 163.23 C 1091.37 163.23 1092.63 163.23 1093.90 163.22 C 1094.47 177.67 1094.64 192.19 1093.80 206.62 C 1092.78 207.07 1091.77 207.52 1090.77 207.97 C 1088.84 193.18 1089.94 178.12 1090.13 163.23 Z" />
<path fill="#315b66" opacity="1.00" d=" M 1028.59 223.30 C 1029.97 223.52 1031.36 223.75 1032.76 223.98 C 1032.57 238.24 1032.69 252.50 1032.69 266.76 L 1032.69 267.68 C 1031.28 267.62 1029.88 267.56 1028.50 267.51 C 1028.29 252.78 1028.14 238.02 1028.59 223.30 Z" />
</g>
<g id="#25b8ebff">
<path fill="#25b8eb" opacity="1.00" d=" M 1309.31 167.25 C 1310.53 165.54 1312.49 161.92 1314.91 164.13 C 1326.91 174.30 1336.70 187.05 1343.64 201.17 C 1347.72 210.34 1348.25 220.59 1348.45 230.49 C 1349.09 230.68 1350.37 231.07 1351.01 231.26 C 1330.61 254.68 1310.16 278.22 1286.82 298.82 C 1279.67 304.67 1272.29 310.29 1265.89 316.99 C 1263.92 317.14 1261.95 317.28 1260.00 317.42 C 1261.33 317.82 1262.67 318.21 1264.03 318.61 C 1259.66 318.78 1255.31 319.08 1250.96 319.41 C 1252.29 319.85 1253.64 320.30 1255.00 320.74 C 1241.00 320.45 1227.00 322.12 1213.01 320.88 C 1203.85 321.36 1195.00 318.43 1185.89 318.56 C 1187.96 318.20 1190.03 317.82 1192.12 317.44 C 1188.07 317.30 1184.04 317.04 1180.02 316.69 C 1180.97 316.24 1181.94 315.80 1182.93 315.37 C 1171.35 315.85 1159.76 310.39 1152.64 301.28 C 1146.93 308.32 1138.58 312.34 1130.20 315.24 C 1113.03 319.11 1095.14 322.47 1077.61 318.90 C 1066.31 317.89 1055.61 314.04 1045.33 309.44 C 1041.80 307.63 1038.89 304.91 1035.81 302.48 C 1032.29 306.01 1028.55 309.65 1023.45 310.61 C 1023.78 310.88 1024.12 311.15 1024.48 311.42 C 1022.95 312.05 1021.42 312.64 1019.91 313.28 C 1015.38 314.46 1010.76 315.20 1006.10 315.42 C 1007.05 315.83 1008.01 316.25 1008.98 316.68 C 1004.97 317.01 1000.96 317.27 996.94 317.43 C 998.64 317.81 1000.34 318.18 1002.05 318.56 C 982.45 320.88 962.72 320.52 943.00 320.39 C 928.83 319.86 913.25 316.55 903.58 305.31 C 894.93 311.79 884.85 316.96 873.83 317.27 C 871.11 305.66 870.98 293.71 871.00 281.85 C 863.38 281.50 855.75 281.56 848.13 281.85 C 848.17 281.47 848.23 280.70 848.26 280.32 C 978.17 280.53 1108.09 280.35 1238.00 280.40 C 1245.81 280.25 1253.69 280.96 1261.44 279.62 C 1264.26 278.45 1267.26 277.83 1270.31 277.60 C 1278.75 277.11 1286.48 273.40 1294.65 271.56 C 1294.21 271.19 1293.79 270.83 1293.39 270.47 C 1303.30 268.81 1310.45 261.47 1319.22 257.30 C 1316.94 253.23 1313.01 250.54 1310.31 246.82 C 1306.71 241.14 1303.65 234.98 1302.51 228.29 C 1302.11 228.78 1301.73 229.26 1301.36 229.75 C 1298.74 208.79 1297.59 185.89 1309.31 167.25 Z" />
</g>
<g id="#2c86a0ff">
<path fill="#2c86a0" opacity="1.00" d=" M 1027.92 172.99 C 1027.78 169.80 1028.32 166.65 1029.21 163.60 C 1030.59 177.71 1028.49 191.96 1030.44 206.02 C 1031.40 203.81 1032.42 201.53 1032.41 199.06 C 1032.49 187.26 1031.75 175.42 1032.76 163.63 C 1034.34 169.98 1033.55 176.54 1033.64 183.00 C 1033.52 190.99 1034.20 199.04 1033.01 206.99 C 1031.39 206.98 1029.79 206.96 1028.20 206.96 C 1027.80 195.64 1028.24 184.31 1027.92 172.99 Z" />
</g>
<g id="#269fc0ff">
<path fill="#269fc0" opacity="1.00" d=" M 1059.29 164.14 C 1059.76 164.15 1060.71 164.16 1061.19 164.17 C 1061.08 178.17 1061.44 192.18 1060.98 206.18 C 1059.82 204.35 1059.05 202.28 1059.22 200.09 C 1059.42 188.10 1059.33 176.12 1059.29 164.14 Z" />
</g>
<g id="#335660ff">
<path fill="#335660" opacity="1.00" d=" M 1097.86 163.89 C 1098.71 163.87 1100.40 163.84 1101.25 163.82 C 1101.52 176.22 1101.31 188.62 1101.42 201.01 C 1101.09 203.10 1101.91 206.52 1098.92 206.72 C 1097.30 203.38 1097.59 199.60 1097.60 196.00 C 1097.86 185.30 1097.42 174.59 1097.86 163.89 Z" />
<path fill="#335660" opacity="1.00" d=" M 1114.76 163.83 C 1115.61 163.85 1117.30 163.89 1118.14 163.92 C 1118.58 174.94 1118.14 185.98 1118.41 197.01 C 1118.33 200.21 1118.72 203.70 1117.04 206.60 C 1114.01 206.56 1114.91 203.05 1114.57 201.01 C 1114.68 188.62 1114.46 176.22 1114.76 163.83 Z" />
<path fill="#335660" opacity="1.00" d=" M 1044.60 223.02 C 1045.95 223.42 1047.46 223.58 1048.64 224.44 C 1048.80 238.61 1048.54 252.78 1048.73 266.95 L 1048.73 268.02 C 1043.19 268.62 1044.23 262.76 1044.26 259.02 C 1044.62 247.02 1043.97 235.01 1044.60 223.02 Z" />
</g>
<g id="#36535cff">
<path fill="#36535c" opacity="1.00" d=" M 1106.29 163.91 C 1107.46 163.90 1108.65 163.89 1109.86 163.88 C 1110.19 178.19 1110.30 192.51 1109.76 206.81 C 1108.64 206.71 1107.54 206.61 1106.45 206.52 C 1106.11 192.32 1106.40 178.11 1106.29 163.91 Z" />
</g>
<g id="#384d55ff">
<path fill="#384d55" opacity="1.00" d=" M 1122.30 163.88 C 1123.45 163.88 1124.62 163.89 1125.80 163.90 C 1125.93 178.10 1126.16 192.32 1125.67 206.52 C 1124.35 205.85 1122.11 205.78 1122.44 203.78 C 1122.09 190.50 1122.48 177.18 1122.30 163.88 Z" />
</g>
<g id="#ffd747ff">
<path fill="#ffd747" opacity="1.00" d=" M 360.90 170.27 C 374.25 170.48 387.61 170.16 400.95 170.39 C 419.90 171.72 437.26 184.97 444.97 202.08 C 439.94 197.14 436.74 189.87 430.00 186.99 C 422.13 191.07 417.39 199.12 411.21 205.22 C 385.04 231.72 360.00 259.31 333.45 285.45 C 302.70 317.95 271.45 349.97 240.81 382.58 C 255.26 383.66 269.78 382.22 284.21 383.65 C 308.12 384.80 332.10 383.00 355.98 384.91 C 370.39 385.36 384.82 384.66 399.23 385.38 C 393.26 386.92 387.08 386.25 381.00 386.29 C 333.42 386.31 285.84 386.20 238.27 386.24 C 238.35 391.20 238.38 396.17 238.39 401.14 C 234.31 400.96 230.73 403.14 228.14 406.14 C 211.74 423.74 195.11 441.09 178.38 458.36 C 171.92 466.30 163.52 472.44 157.55 480.80 C 165.15 486.83 174.64 489.36 182.97 494.08 C 173.10 492.95 164.03 488.29 155.54 483.39 C 142.69 475.34 131.51 461.83 131.57 446.00 C 131.75 438.12 131.10 430.19 132.15 422.35 C 135.22 411.36 128.86 397.82 137.85 388.86 C 165.89 359.56 194.10 330.41 221.94 300.93 C 227.02 295.68 231.76 288.04 239.93 287.99 C 248.09 287.83 256.28 288.36 264.44 287.58 C 277.73 286.42 291.12 288.22 304.36 286.46 C 318.67 284.91 333.47 280.40 343.49 269.51 C 355.18 257.50 360.05 240.41 360.63 224.00 C 360.85 206.09 360.28 188.17 360.90 170.27 Z" />
</g>
<g id="#3776abff">
<path fill="#3776ab" opacity="1.00" d=" M 33.46 203.44 C 43.87 186.38 62.66 173.62 83.03 173.50 C 122.35 173.59 161.68 173.50 201.00 173.54 C 208.12 173.59 215.27 173.15 222.36 174.07 C 210.35 175.68 198.18 175.18 186.14 176.32 C 179.96 177.28 175.97 182.66 171.58 186.58 C 131.88 226.21 92.16 265.83 52.53 305.53 C 44.21 313.21 35.93 320.93 28.04 329.05 C 26.49 330.48 25.75 332.55 26.40 334.62 C 27.68 340.14 29.30 345.61 29.85 351.28 C 27.57 348.76 26.32 345.57 25.42 342.34 C 15.33 313.55 14.75 282.37 17.64 252.29 C 20.10 235.31 24.03 218.04 33.46 203.44 Z" />
</g>
<g id="#ffd040ff">
<path fill="#ffd040" opacity="1.00" d=" M 411.21 205.22 C 417.39 199.12 422.13 191.07 430.00 186.99 C 436.74 189.87 439.94 197.14 444.97 202.08 C 454.29 215.88 457.09 232.98 459.73 249.13 C 460.36 268.09 459.94 287.09 459.95 306.06 C 457.42 329.88 449.77 354.94 431.30 371.30 C 422.33 378.94 411.17 384.82 399.23 385.38 C 384.82 384.66 370.39 385.36 355.98 384.91 C 332.10 383.00 308.12 384.80 284.21 383.65 C 269.78 382.22 255.26 383.66 240.81 382.58 C 271.45 349.97 302.70 317.95 333.45 285.45 C 360.00 259.31 385.04 231.72 411.21 205.22 Z" />
</g>
<g id="#555455ff">
<path fill="#555455" opacity="1.00" d=" M 609.88 217.88 C 619.63 212.10 634.40 217.14 637.36 228.43 C 638.97 236.56 636.99 244.83 636.75 253.00 C 636.49 261.95 636.63 270.91 636.88 279.86 C 654.88 281.66 672.95 278.08 690.90 280.38 C 697.88 281.56 705.62 284.11 709.39 290.60 C 714.50 299.93 709.78 312.93 699.87 316.79 C 692.75 319.36 685.32 316.27 678.06 316.32 C 664.44 316.21 650.83 316.90 637.22 316.88 C 637.29 332.25 637.24 347.62 637.27 362.99 C 637.22 368.49 636.93 374.67 632.87 378.87 C 627.36 384.59 618.32 384.75 611.11 382.84 C 604.26 380.90 600.33 373.78 600.40 366.96 C 600.27 350.53 600.13 334.10 599.96 317.67 C 581.40 317.75 562.07 321.70 544.03 315.86 C 533.09 312.54 529.44 298.52 535.29 289.32 C 538.44 284.49 544.39 282.40 549.95 282.34 C 566.60 281.96 583.28 282.08 599.89 280.67 C 600.02 265.58 599.09 250.45 600.66 235.41 C 601.44 228.76 604.01 221.66 609.88 217.88 Z" />
</g>
<g id="#03a6cbff">
<path fill="#03a6cb" opacity="1.00" d=" M 901.23 219.28 C 919.07 219.31 936.91 219.33 954.75 219.28 C 954.82 236.80 954.82 254.33 954.76 271.86 C 936.93 272.33 919.06 272.36 901.23 271.84 C 901.11 254.32 901.12 236.80 901.23 219.28 M 930.31 226.98 C 930.19 237.66 930.50 248.35 930.25 259.03 C 930.45 262.20 929.18 267.21 933.73 267.52 C 934.54 256.70 933.85 245.84 934.16 235.01 C 934.06 231.04 934.67 226.78 932.79 223.12 C 930.49 222.51 930.51 225.45 930.31 226.98 M 938.42 223.49 C 939.06 238.19 938.07 252.93 938.99 267.62 C 944.08 267.23 942.47 261.58 942.73 258.03 C 942.35 247.10 943.06 236.15 942.46 225.24 C 942.79 222.82 939.89 223.82 938.42 223.49 M 906.26 223.94 C 905.90 238.54 905.93 253.15 906.25 267.75 C 907.40 267.76 908.55 267.78 909.72 267.81 L 909.71 266.86 C 910.50 266.79 912.06 266.64 912.85 266.56 C 913.82 252.79 913.34 238.94 913.11 225.15 C 912.31 225.10 910.70 224.99 909.90 224.93 C 908.68 224.60 907.46 224.27 906.26 223.94 M 946.44 224.39 C 946.20 239.19 946.36 253.99 946.36 268.79 C 947.44 268.77 948.53 268.76 949.64 268.76 C 949.71 253.88 949.63 239.00 949.68 224.12 C 948.59 224.21 947.51 224.30 946.44 224.39 M 914.74 224.76 C 914.62 238.19 914.42 251.65 914.76 265.07 C 913.77 268.18 918.83 267.84 918.09 264.94 C 918.61 251.62 918.36 238.24 918.13 224.91 C 917.28 224.87 915.59 224.80 914.74 224.76 M 921.89 224.87 C 921.53 237.25 921.76 249.65 921.67 262.03 C 921.84 264.02 921.76 268.97 924.91 267.02 C 925.99 253.00 925.19 238.84 925.26 224.77 C 924.42 224.80 922.73 224.85 921.89 224.87 Z" />
</g>
<g id="#23bbe5ff">
<path fill="#23bbe5" opacity="1.00" d=" M 962.70 219.70 C 980.36 218.74 998.13 219.65 1015.83 219.29 C 1016.32 236.81 1016.26 254.36 1015.88 271.88 C 998.03 272.29 980.14 272.41 962.30 271.82 C 962.70 254.45 961.81 237.02 962.70 219.70 M 983.89 223.02 C 982.26 237.84 983.39 252.85 983.30 267.75 C 984.74 267.74 986.19 267.74 987.66 267.74 C 987.54 253.03 987.85 238.32 987.50 223.61 C 986.28 223.41 985.08 223.21 983.89 223.02 M 991.32 223.23 C 991.35 238.08 991.36 252.92 991.32 267.76 C 992.50 267.76 993.69 267.75 994.89 267.76 C 995.63 252.95 995.69 238.05 994.85 223.24 C 993.66 223.24 992.48 223.24 991.32 223.23 M 1007.36 223.15 C 1007.32 238.05 1007.30 252.95 1007.36 267.86 C 1008.72 267.72 1010.09 267.58 1011.48 267.45 C 1011.74 252.83 1011.79 238.20 1011.45 223.58 C 1010.07 223.44 1008.71 223.29 1007.36 223.15 M 967.87 224.15 C 967.37 237.10 967.69 250.07 967.61 263.02 C 967.25 265.28 969.44 269.70 970.83 265.85 C 971.52 252.08 971.39 238.19 970.79 224.41 C 970.06 224.34 968.60 224.21 967.87 224.15 M 975.75 224.79 C 975.62 239.11 975.33 253.45 975.93 267.77 C 976.69 267.77 978.23 267.78 979.00 267.78 C 979.67 253.47 979.34 239.13 979.20 224.82 C 978.34 224.81 976.61 224.80 975.75 224.79 M 999.76 224.82 C 999.64 239.13 999.32 253.46 999.95 267.77 C 1000.72 267.77 1002.27 267.78 1003.05 267.78 C 1003.66 253.47 1003.36 239.13 1003.23 224.80 C 1002.37 224.81 1000.63 224.81 999.76 224.82 Z" />
</g>
<g id="#02a7cdff">
<path fill="#02a7cd" opacity="1.00" d=" M 1024.40 219.40 C 1041.91 219.18 1059.42 219.43 1076.94 219.28 C 1077.50 236.80 1077.40 254.37 1076.99 271.89 C 1059.42 272.28 1041.83 272.31 1024.26 271.88 C 1024.36 254.39 1024.09 236.89 1024.40 219.40 M 1028.59 223.30 C 1028.14 238.02 1028.29 252.78 1028.50 267.51 C 1029.88 267.56 1031.28 267.62 1032.69 267.68 L 1032.69 266.76 C 1033.87 266.75 1035.07 266.75 1036.27 266.74 C 1037.53 266.90 1038.81 267.06 1040.09 267.22 C 1040.54 252.85 1040.56 238.44 1040.09 224.07 C 1038.78 224.12 1037.48 224.17 1036.19 224.22 L 1036.21 225.17 C 1035.05 224.77 1033.90 224.38 1032.76 223.98 C 1031.36 223.75 1029.97 223.52 1028.59 223.30 M 1044.60 223.02 C 1043.97 235.01 1044.62 247.02 1044.26 259.02 C 1044.23 262.76 1043.19 268.62 1048.73 268.02 L 1048.73 266.95 C 1050.11 266.90 1051.50 266.86 1052.90 266.82 C 1053.71 266.90 1055.33 267.07 1056.14 267.15 C 1056.67 252.80 1056.25 238.43 1056.37 224.08 C 1053.78 224.14 1051.21 224.28 1048.64 224.44 C 1047.46 223.58 1045.95 223.42 1044.60 223.02 M 1061.20 223.26 C 1060.45 238.06 1060.50 252.94 1061.17 267.75 C 1062.33 267.76 1063.50 267.77 1064.69 267.79 C 1065.87 267.45 1067.06 267.12 1068.27 266.79 L 1068.26 267.72 C 1069.74 267.73 1071.24 267.74 1072.75 267.75 C 1073.01 252.89 1073.05 238.02 1072.72 223.16 C 1071.27 223.29 1069.84 223.42 1068.42 223.56 C 1068.40 224.21 1068.38 225.52 1068.37 226.17 C 1067.13 225.80 1065.90 225.42 1064.69 225.05 C 1064.69 224.59 1064.70 223.67 1064.70 223.21 C 1063.52 223.22 1062.35 223.24 1061.20 223.26 Z" />
</g>
<g id="#23bce7ff">
<path fill="#23bce7" opacity="1.00" d=" M 1085.42 219.42 C 1103.20 219.20 1120.99 219.43 1138.78 219.29 C 1138.97 236.81 1138.93 254.33 1138.81 271.84 C 1120.98 272.34 1103.12 272.29 1085.29 271.88 C 1085.47 254.39 1085.23 236.90 1085.42 219.42 M 1106.14 223.00 L 1106.17 223.92 C 1104.50 225.15 1102.93 226.75 1103.18 229.00 C 1103.07 239.69 1103.28 250.39 1103.11 261.08 C 1102.80 263.85 1104.04 266.30 1106.10 268.08 C 1107.31 267.93 1108.54 267.80 1109.77 267.66 C 1110.28 252.89 1110.30 238.09 1109.76 223.32 C 1108.54 223.22 1107.33 223.11 1106.14 223.00 M 1122.35 223.24 C 1122.30 238.08 1122.31 252.93 1122.34 267.77 C 1123.46 267.76 1124.58 267.74 1125.73 267.73 C 1126.01 252.92 1126.05 238.08 1125.70 223.27 C 1124.57 223.26 1123.45 223.25 1122.35 223.24 M 1090.27 224.38 C 1089.49 238.58 1089.75 252.83 1090.12 267.05 C 1091.37 267.05 1092.63 267.05 1093.90 267.05 C 1094.30 252.74 1094.33 238.40 1093.87 224.09 C 1092.66 224.18 1091.46 224.28 1090.27 224.38 M 1098.01 224.03 C 1097.50 238.62 1097.35 253.27 1098.12 267.86 C 1099.27 267.72 1100.43 267.60 1101.61 267.48 C 1102.37 253.13 1102.12 238.71 1101.70 224.35 C 1100.46 224.25 1099.23 224.14 1098.01 224.03 M 1114.13 224.16 C 1113.74 238.68 1113.62 253.23 1114.20 267.74 C 1115.42 267.74 1116.64 267.75 1117.89 267.75 C 1118.64 253.24 1118.48 238.66 1117.99 224.14 C 1116.69 224.15 1115.40 224.15 1114.13 224.16 M 1130.86 224.14 C 1130.44 238.46 1130.49 252.81 1130.83 267.14 C 1131.60 267.10 1133.16 267.02 1133.94 266.98 C 1134.28 252.71 1134.29 238.42 1133.92 224.15 C 1133.16 224.15 1131.62 224.14 1130.86 224.14 Z" />
</g>
<g id="#04a5c9ff">
<path fill="#04a5c9" opacity="1.00" d=" M 1146.83 219.81 C 1164.58 219.53 1182.35 219.44 1200.10 219.86 C 1200.64 237.00 1200.23 254.15 1200.32 271.30 C 1196.25 272.03 1192.12 272.39 1187.99 272.25 C 1174.29 271.93 1160.58 272.50 1146.88 271.94 C 1146.44 254.57 1146.54 237.18 1146.83 219.81 M 1151.51 223.60 C 1151.07 235.75 1151.57 247.90 1151.24 260.05 C 1151.31 263.19 1150.52 267.78 1154.75 268.34 C 1155.80 253.31 1155.56 238.16 1154.88 223.12 C 1153.74 223.28 1152.62 223.44 1151.51 223.60 M 1167.32 223.22 C 1167.42 237.11 1167.23 251.01 1167.35 264.89 C 1167.05 266.94 1169.25 267.63 1170.70 268.39 C 1171.82 253.39 1171.59 238.25 1170.84 223.24 C 1169.65 223.23 1168.48 223.23 1167.32 223.22 M 1176.10 222.57 C 1174.49 230.96 1175.58 239.53 1175.31 248.00 C 1175.55 254.16 1174.63 260.40 1175.65 266.50 C 1176.05 268.86 1179.74 268.05 1179.52 265.74 C 1180.01 254.51 1179.35 243.23 1179.74 231.98 C 1179.57 228.54 1180.78 223.29 1176.10 222.57 M 1191.60 223.11 C 1190.97 235.41 1191.62 247.73 1191.24 260.04 C 1191.36 262.63 1190.83 265.54 1192.38 267.82 C 1196.46 268.62 1195.57 263.62 1195.76 261.06 C 1195.34 249.14 1196.04 237.19 1195.47 225.29 C 1195.74 223.05 1192.99 223.65 1191.60 223.11 M 1159.20 224.16 C 1159.01 238.39 1159.11 252.62 1159.14 266.85 C 1159.98 267.04 1161.66 267.44 1162.50 267.63 C 1164.21 253.25 1163.27 238.61 1163.01 224.14 C 1161.73 224.15 1160.46 224.15 1159.20 224.16 M 1183.41 224.38 C 1183.21 238.85 1183.40 253.31 1183.31 267.77 C 1184.49 267.77 1185.68 267.76 1186.89 267.76 C 1187.70 253.23 1187.52 238.63 1187.00 224.09 C 1185.79 224.18 1184.60 224.28 1183.41 224.38 Z" />
</g>
<g id="#36525bff">
<path fill="#36525b" opacity="1.00" d=" M 930.31 226.98 C 930.51 225.45 930.49 222.51 932.79 223.12 C 934.67 226.78 934.06 231.04 934.16 235.01 C 933.85 245.84 934.54 256.70 933.73 267.52 C 929.18 267.21 930.45 262.20 930.25 259.03 C 930.50 248.35 930.19 237.66 930.31 226.98 Z" />
</g>
<g id="#315f6cff">
<path fill="#315f6c" opacity="1.00" d=" M 938.42 223.49 C 939.89 223.82 942.79 222.82 942.46 225.24 C 943.06 236.15 942.35 247.10 942.73 258.03 C 942.47 261.58 944.08 267.23 938.99 267.62 C 938.07 252.93 939.06 238.19 938.42 223.49 Z" />
</g>
<g id="#365c68ff">
<path fill="#365c68" opacity="1.00" d=" M 983.89 223.02 C 985.08 223.21 986.28 223.41 987.50 223.61 C 987.85 238.32 987.54 253.03 987.66 267.74 C 986.19 267.74 984.74 267.74 983.30 267.75 C 983.39 252.85 982.26 237.84 983.89 223.02 Z" />
</g>
<g id="#365a65ff">
<path fill="#365a65" opacity="1.00" d=" M 991.32 223.23 C 992.48 223.24 993.66 223.24 994.85 223.24 C 995.69 238.05 995.63 252.95 994.89 267.76 C 993.69 267.75 992.50 267.76 991.32 267.76 C 991.36 252.92 991.35 238.08 991.32 223.23 Z" />
<path fill="#365a65" opacity="1.00" d=" M 1007.36 223.15 C 1008.71 223.29 1010.07 223.44 1011.45 223.58 C 1011.79 238.20 1011.74 252.83 1011.48 267.45 C 1010.09 267.58 1008.72 267.72 1007.36 267.86 C 1007.30 252.95 1007.32 238.05 1007.36 223.15 Z" />
</g>
<g id="#384e55ff">
<path fill="#384e55" opacity="1.00" d=" M 1061.20 223.26 C 1062.35 223.24 1063.52 223.22 1064.70 223.21 C 1064.70 223.67 1064.69 224.59 1064.69 225.05 C 1064.64 239.30 1064.63 253.55 1064.69 267.79 C 1063.50 267.77 1062.33 267.76 1061.17 267.75 C 1060.50 252.94 1060.45 238.06 1061.20 223.26 Z" />
</g>
<g id="#315a65ff">
<path fill="#315a65" opacity="1.00" d=" M 1068.42 223.56 C 1069.84 223.42 1071.27 223.29 1072.72 223.16 C 1073.05 238.02 1073.01 252.89 1072.75 267.75 C 1071.24 267.74 1069.74 267.73 1068.26 267.72 L 1068.27 266.79 C 1068.48 253.25 1068.24 239.71 1068.37 226.17 C 1068.38 225.52 1068.40 224.21 1068.42 223.56 Z" />
<path fill="#315a65" opacity="1.00" d=" M 1151.51 223.60 C 1152.62 223.44 1153.74 223.28 1154.88 223.12 C 1155.56 238.16 1155.80 253.31 1154.75 268.34 C 1150.52 267.78 1151.31 263.19 1151.24 260.05 C 1151.57 247.90 1151.07 235.75 1151.51 223.60 Z" />
<path fill="#315a65" opacity="1.00" d=" M 914.74 224.76 C 915.59 224.80 917.28 224.87 918.13 224.91 C 918.36 238.24 918.61 251.62 918.09 264.94 C 918.83 267.84 913.77 268.18 914.76 265.07 C 914.42 251.65 914.62 238.19 914.74 224.76 Z" />
</g>
<g id="#315964ff">
<path fill="#315964" opacity="1.00" d=" M 1167.32 223.22 C 1168.48 223.23 1169.65 223.23 1170.84 223.24 C 1171.59 238.25 1171.82 253.39 1170.70 268.39 C 1169.25 267.63 1167.05 266.94 1167.35 264.89 C 1167.23 251.01 1167.42 237.11 1167.32 223.22 Z" />
</g>
<g id="#335763ff">
<path fill="#335763" opacity="1.00" d=" M 1176.10 222.57 C 1180.78 223.29 1179.57 228.54 1179.74 231.98 C 1179.35 243.23 1180.01 254.51 1179.52 265.74 C 1179.74 268.05 1176.05 268.86 1175.65 266.50 C 1174.63 260.40 1175.55 254.16 1175.31 248.00 C 1175.58 239.53 1174.49 230.96 1176.10 222.57 Z" />
</g>
<g id="#325763ff">
<path fill="#325763" opacity="1.00" d=" M 1191.60 223.11 C 1192.99 223.65 1195.74 223.05 1195.47 225.29 C 1196.04 237.19 1195.34 249.14 1195.76 261.06 C 1195.57 263.62 1196.46 268.62 1192.38 267.82 C 1190.83 265.54 1191.36 262.63 1191.24 260.04 C 1191.62 247.73 1190.97 235.41 1191.60 223.11 Z" />
</g>
<g id="#375158ff">
<path fill="#375158" opacity="1.00" d=" M 906.26 223.94 C 907.46 224.27 908.68 224.60 909.90 224.93 C 909.41 238.90 909.71 252.89 909.71 266.86 L 909.72 267.81 C 908.55 267.78 907.40 267.76 906.25 267.75 C 905.93 253.15 905.90 238.54 906.26 223.94 Z" />
</g>
<g id="#385057ff">
<path fill="#385057" opacity="1.00" d=" M 946.44 224.39 C 947.51 224.30 948.59 224.21 949.68 224.12 C 949.63 239.00 949.71 253.88 949.64 268.76 C 948.53 268.76 947.44 268.77 946.36 268.79 C 946.36 253.99 946.20 239.19 946.44 224.39 Z" />
</g>
<g id="#38525bff">
<path fill="#38525b" opacity="1.00" d=" M 967.87 224.15 C 968.60 224.21 970.06 224.34 970.79 224.41 C 971.39 238.19 971.52 252.08 970.83 265.85 C 969.44 269.70 967.25 265.28 967.61 263.02 C 967.69 250.07 967.37 237.10 967.87 224.15 Z" />
</g>
<g id="#089dbeff">
<path fill="#089dbe" opacity="1.00" d=" M 1032.76 223.98 C 1033.90 224.38 1035.05 224.77 1036.21 225.17 C 1036.48 239.03 1036.38 252.89 1036.27 266.74 C 1035.07 266.75 1033.87 266.75 1032.69 266.76 C 1032.69 252.50 1032.57 238.24 1032.76 223.98 Z" />
</g>
<g id="#345660ff">
<path fill="#345660" opacity="1.00" d=" M 1036.19 224.22 C 1037.48 224.17 1038.78 224.12 1040.09 224.07 C 1040.56 238.44 1040.54 252.85 1040.09 267.22 C 1038.81 267.06 1037.53 266.90 1036.27 266.74 C 1036.38 252.89 1036.48 239.03 1036.21 225.17 L 1036.19 224.22 Z" />
</g>
<g id="#099fc2ff">
<path fill="#099fc2" opacity="1.00" d=" M 1048.64 224.44 C 1051.21 224.28 1053.78 224.14 1056.37 224.08 C 1055.48 224.35 1053.72 224.90 1052.83 225.17 C 1052.53 239.05 1052.48 252.94 1052.90 266.82 C 1051.50 266.86 1050.11 266.90 1048.73 266.95 C 1048.54 252.78 1048.80 238.61 1048.64 224.44 Z" />
</g>
<g id="#375862ff">
<path fill="#375862" opacity="1.00" d=" M 1090.27 224.38 C 1091.46 224.28 1092.66 224.18 1093.87 224.09 C 1094.33 238.40 1094.30 252.74 1093.90 267.05 C 1092.63 267.05 1091.37 267.05 1090.12 267.05 C 1089.75 252.83 1089.49 238.58 1090.27 224.38 Z" />
</g>
<g id="#25b3dcff">
<path fill="#25b3dc" opacity="1.00" d=" M 1103.18 229.00 C 1102.93 226.75 1104.50 225.15 1106.17 223.92 C 1106.40 238.63 1106.53 253.37 1106.10 268.08 C 1104.04 266.30 1102.80 263.85 1103.11 261.08 C 1103.28 250.39 1103.07 239.69 1103.18 229.00 Z" />
</g>
<g id="#345963ff">
<path fill="#345963" opacity="1.00" d=" M 1159.20 224.16 C 1160.46 224.15 1161.73 224.15 1163.01 224.14 C 1163.27 238.61 1164.21 253.25 1162.50 267.63 C 1161.66 267.44 1159.98 267.04 1159.14 266.85 C 1159.11 252.62 1159.01 238.39 1159.20 224.16 Z" />
</g>
<g id="#335661ff">
<path fill="#335661" opacity="1.00" d=" M 1183.41 224.38 C 1184.60 224.28 1185.79 224.18 1187.00 224.09 C 1187.52 238.63 1187.70 253.23 1186.89 267.76 C 1185.68 267.76 1184.49 267.77 1183.31 267.77 C 1183.40 253.31 1183.21 238.85 1183.41 224.38 Z" />
</g>
<g id="#00aadaff">
<path fill="#00aada" opacity="1.00" d=" M 1353.30 228.53 C 1370.22 222.89 1388.28 222.74 1405.86 224.68 C 1405.92 225.35 1405.96 226.04 1406.02 226.72 C 1412.53 226.36 1418.30 229.51 1423.53 233.01 C 1416.49 247.47 1403.38 260.07 1387.32 263.48 C 1387.76 263.84 1388.21 264.20 1388.68 264.56 C 1384.64 265.40 1380.68 266.54 1376.71 267.62 C 1363.63 270.71 1349.99 268.35 1336.83 269.83 C 1334.65 274.02 1334.10 278.84 1331.95 283.05 C 1325.30 293.78 1322.57 306.64 1314.50 316.55 C 1304.13 316.40 1294.81 311.04 1285.89 306.36 C 1279.11 309.44 1274.10 316.52 1265.89 316.99 C 1272.29 310.29 1279.67 304.67 1286.82 298.82 C 1310.16 278.22 1330.61 254.68 1351.01 231.26 C 1352.10 230.48 1353.31 229.87 1354.51 229.22 C 1354.09 228.99 1353.69 228.76 1353.30 228.53 Z" />
<path fill="#00aada" opacity="1.00" d=" M 848.13 281.85 C 855.75 281.56 863.38 281.50 871.00 281.85 C 870.98 293.71 871.11 305.66 873.83 317.27 C 872.53 317.33 871.25 317.39 869.98 317.45 C 871.65 317.87 873.33 318.28 875.03 318.69 C 866.10 318.39 857.20 319.98 848.28 319.09 C 847.34 306.71 847.22 294.23 848.13 281.85 Z" />
</g>
<g id="#079ec1ff">
<path fill="#079ec1" opacity="1.00" d=" M 909.90 224.93 C 910.70 224.99 912.31 225.10 913.11 225.15 C 913.34 238.94 913.82 252.79 912.85 266.56 C 912.06 266.64 910.50 266.79 909.71 266.86 C 909.71 252.89 909.41 238.90 909.90 224.93 Z" />
</g>
<g id="#365a66ff">
<path fill="#365a66" opacity="1.00" d=" M 975.75 224.79 C 976.61 224.80 978.34 224.81 979.20 224.82 C 979.34 239.13 979.67 253.47 979.00 267.78 C 978.23 267.78 976.69 267.77 975.93 267.77 C 975.33 253.45 975.62 239.11 975.75 224.79 Z" />
</g>
<g id="#375964ff">
<path fill="#375964" opacity="1.00" d=" M 999.76 224.82 C 1000.63 224.81 1002.37 224.81 1003.23 224.80 C 1003.36 239.13 1003.66 253.47 1003.05 267.78 C 1002.27 267.78 1000.72 267.77 999.95 267.77 C 999.32 253.46 999.64 239.13 999.76 224.82 Z" />
</g>
<g id="#07a2c5ff">
<path fill="#07a2c5" opacity="1.00" d=" M 1064.69 225.05 C 1065.90 225.42 1067.13 225.80 1068.37 226.17 C 1068.24 239.71 1068.48 253.25 1068.27 266.79 C 1067.06 267.12 1065.87 267.45 1064.69 267.79 C 1064.63 253.55 1064.64 239.30 1064.69 225.05 Z" />
</g>
<g id="#ffdc4eff">
<path fill="#ffdc4e" opacity="1.00" d=" M 143.71 306.71 C 155.48 292.77 174.16 286.68 191.95 286.29 C 229.42 286.46 266.89 286.12 304.36 286.46 C 291.12 288.22 277.73 286.42 264.44 287.58 C 256.28 288.36 248.09 287.83 239.93 287.99 C 231.76 288.04 227.02 295.68 221.94 300.93 C 194.10 330.41 165.89 359.56 137.85 388.86 C 128.86 397.82 135.22 411.36 132.15 422.35 C 130.89 396.94 132.01 371.45 131.59 346.00 C 131.00 332.08 134.48 317.45 143.71 306.71 Z" />
</g>
<g id="#2a97bdff">
<path fill="#2a97bd" opacity="1.00" d=" M 1045.33 309.44 C 1055.61 314.04 1066.31 317.89 1077.61 318.90 C 1095.14 322.47 1113.03 319.11 1130.20 315.24 C 1121.80 321.09 1110.80 320.71 1100.99 321.31 C 1088.02 321.38 1074.65 321.93 1062.22 317.57 C 1056.35 315.45 1049.90 313.97 1045.33 309.44 Z" />
</g>
<g id="#029bc6ff">
<path fill="#029bc6" opacity="1.00" d=" M 849.11 327.93 C 854.04 327.24 859.03 327.20 864.00 327.35 C 993.07 327.42 1122.15 327.26 1251.22 327.43 C 1244.18 334.17 1236.04 339.57 1228.01 345.02 C 1210.35 357.10 1191.94 368.05 1173.00 378.00 C 1127.62 400.53 1078.62 417.79 1027.68 420.68 C 1018.61 421.46 1009.44 420.25 1000.44 421.93 C 994.42 414.02 989.48 405.37 985.09 396.48 C 989.51 395.07 994.43 392.27 993.33 386.78 C 985.09 386.18 977.60 390.22 969.60 391.31 C 954.55 392.97 939.48 396.21 924.28 394.98 C 915.90 391.14 909.52 384.30 903.24 377.76 C 890.02 364.02 881.34 346.41 876.48 328.09 C 868.72 328.01 860.93 327.29 853.19 328.04 C 851.32 327.98 850.50 329.78 849.52 331.03 C 849.37 329.99 849.24 328.96 849.11 327.93 M 1007.35 358.29 C 996.58 360.81 995.18 375.66 1002.35 382.62 C 1010.42 391.31 1029.11 385.08 1026.62 372.00 C 1028.46 361.48 1016.33 354.74 1007.35 358.29 Z" />
</g>
<g id="#008ab8ff">
<path fill="#008ab8" opacity="1.00" d=" M 1251.22 327.43 C 1270.19 327.56 1289.21 326.75 1308.15 327.86 C 1289.09 356.47 1266.48 383.42 1237.84 402.87 C 1218.97 418.86 1195.77 428.11 1173.63 438.51 C 1163.23 443.68 1151.67 445.48 1140.97 449.83 C 1132.19 452.28 1123.16 453.79 1114.20 455.40 C 1099.13 457.33 1084.33 461.97 1069.01 461.46 C 1062.54 461.33 1055.89 463.66 1049.56 461.71 C 1034.79 453.26 1019.38 445.00 1008.10 431.93 C 1005.45 428.67 1002.98 425.27 1000.44 421.93 C 1009.44 420.25 1018.61 421.46 1027.68 420.68 C 1078.62 417.79 1127.62 400.53 1173.00 378.00 C 1191.94 368.05 1210.35 357.10 1228.01 345.02 C 1236.04 339.57 1244.18 334.17 1251.22 327.43 Z" />
<path fill="#008ab8" opacity="1.00" d=" M 849.52 331.03 C 850.50 329.78 851.32 327.98 853.19 328.04 C 860.93 327.29 868.72 328.01 876.48 328.09 C 881.34 346.41 890.02 364.02 903.24 377.76 C 909.52 384.30 915.90 391.14 924.28 394.98 C 908.99 395.74 893.64 395.39 878.36 394.60 C 869.51 381.84 860.61 368.62 856.32 353.54 C 853.47 346.24 850.53 338.86 849.52 331.03 Z" />
</g>
<g id="#c9e6ecff">
<path fill="#c9e6ec" opacity="1.00" d=" M 1007.35 358.29 C 1016.33 354.74 1028.46 361.48 1026.62 372.00 C 1029.11 385.08 1010.42 391.31 1002.35 382.62 C 995.18 375.66 996.58 360.81 1007.35 358.29 M 1002.05 367.97 C 998.65 375.45 1006.02 384.19 1013.78 383.67 C 1020.60 382.31 1025.48 375.33 1023.35 368.45 C 1020.96 368.78 1018.56 369.15 1016.16 368.96 C 1015.73 366.26 1015.70 363.51 1015.62 360.79 C 1010.24 360.59 1004.15 362.53 1002.05 367.97 Z" />
</g>
<g id="#849aa0ff">
<path fill="#849aa0" opacity="1.00" d=" M 1002.05 367.97 C 1004.15 362.53 1010.24 360.59 1015.62 360.79 C 1015.70 363.51 1015.73 366.26 1016.16 368.96 C 1018.56 369.15 1020.96 368.78 1023.35 368.45 C 1025.48 375.33 1020.60 382.31 1013.78 383.67 C 1006.02 384.19 998.65 375.45 1002.05 367.97 M 1004.31 366.45 C 1003.08 369.97 1003.07 374.02 1004.29 377.55 C 1006.54 382.04 1012.57 382.06 1016.80 380.96 C 1021.15 379.58 1022.29 374.74 1022.52 370.72 C 1019.68 370.49 1016.86 370.00 1014.13 369.21 C 1014.02 366.98 1013.92 364.76 1013.81 362.54 C 1010.37 362.76 1006.06 362.89 1004.31 366.45 Z" />
</g>
<g id="#394d54ff">
<path fill="#394d54" opacity="1.00" d=" M 1004.31 366.45 C 1006.06 362.89 1010.37 362.76 1013.81 362.54 C 1013.92 364.76 1014.02 366.98 1014.13 369.21 C 1016.86 370.00 1019.68 370.49 1022.52 370.72 C 1022.29 374.74 1021.15 379.58 1016.80 380.96 C 1012.57 382.06 1006.54 382.04 1004.29 377.55 C 1003.07 374.02 1003.08 369.97 1004.31 366.45 Z" />
</g>
<g id="#6abcd2ff">
<path fill="#6abcd2" opacity="1.00" d=" M 976.58 398.20 C 979.34 397.30 982.19 396.74 985.09 396.48 C 989.48 405.37 994.42 414.02 1000.44 421.93 C 1002.98 425.27 1005.45 428.67 1008.10 431.93 C 1002.63 427.34 998.22 421.70 994.27 415.78 C 990.49 410.28 988.10 403.94 984.25 398.52 C 981.79 397.64 979.11 398.00 976.58 398.20 Z" />
</g>
<g id="#d4edf1ff">
<path fill="#d4edf1" opacity="1.00" d=" M 976.58 398.20 C 979.11 398.00 981.79 397.64 984.25 398.52 C 988.10 403.94 990.49 410.28 994.27 415.78 C 994.51 416.92 994.74 418.06 994.97 419.22 C 976.07 418.00 956.89 414.20 939.92 405.52 C 944.49 405.05 949.07 404.47 953.52 403.23 C 961.09 401.07 968.83 399.54 976.58 398.20 Z" />
</g>
<g id="#ffcf3eff">
<path fill="#ffcf3e" opacity="1.00" d=" M 228.14 406.14 C 230.73 403.14 234.31 400.96 238.39 401.14 C 274.28 401.52 310.18 401.29 346.07 401.25 C 346.68 416.49 346.12 431.75 346.39 447.00 C 346.59 454.26 346.23 461.96 342.31 468.33 C 335.72 479.24 324.36 486.22 312.74 490.74 C 290.23 499.45 265.80 500.16 242.00 501.21 C 230.67 500.98 219.29 500.94 208.07 499.15 C 199.66 497.88 190.69 498.09 182.97 494.08 C 174.64 489.36 165.15 486.83 157.55 480.80 C 163.52 472.44 171.92 466.30 178.38 458.36 C 195.11 441.09 211.74 423.74 228.14 406.14 M 295.39 428.62 C 287.19 430.60 280.49 438.43 280.53 446.99 C 280.20 455.08 285.56 462.97 293.11 465.79 C 299.78 467.90 307.84 467.13 312.92 461.92 C 320.35 455.58 321.45 443.32 315.28 435.76 C 310.74 429.80 302.69 426.90 295.39 428.62 Z" />
</g>
<g id="#bfdbe0ff">
<path fill="#bfdbe0" opacity="1.00" d=" M 928.02 404.33 C 936.53 404.04 944.99 401.45 953.52 403.23 C 949.07 404.47 944.49 405.05 939.92 405.52 C 956.89 414.20 976.07 418.00 994.97 419.22 C 994.74 418.06 994.51 416.92 994.27 415.78 C 998.22 421.70 1002.63 427.34 1008.10 431.93 C 1019.38 445.00 1034.79 453.26 1049.56 461.71 C 1028.65 463.80 1007.61 461.72 986.83 459.45 C 989.25 459.09 991.69 458.71 994.13 458.36 C 989.78 458.41 985.44 458.31 981.11 458.00 C 981.66 457.41 982.23 456.83 982.81 456.25 C 964.36 456.99 948.33 446.57 931.56 440.54 C 931.85 440.18 932.16 439.83 932.48 439.48 C 918.01 433.36 905.85 423.09 894.07 412.92 C 890.97 410.35 888.12 407.49 885.66 404.31 C 899.77 404.10 913.90 404.58 928.02 404.33 Z" />
</g>
</svg>
