<?xml version="1.0" encoding="UTF-8" ?>
<!DOCTYPE svg PUBLIC "-//W3C//DTD SVG 1.1//EN" "http://www.w3.org/Graphics/SVG/1.1/DTD/svg11.dtd">
<svg width="300pt" height="117pt" viewBox="0 0 300 117" version="1.1" xmlns="http://www.w3.org/2000/svg">
<g id="#e94646ff">
<path fill="#e94646" opacity="1.00" d=" M 27.49 37.28 C 28.85 37.28 30.20 37.28 31.55 37.29 C 31.49 45.84 32.57 54.54 31.05 62.99 C 28.53 72.03 15.08 73.80 9.96 66.10 C 5.85 60.65 7.55 51.88 13.63 48.61 C 17.78 45.99 22.81 47.36 27.17 48.60 C 27.24 44.82 27.33 41.05 27.49 37.28 M 18.38 51.14 C 11.74 52.18 10.01 61.99 15.47 65.59 C 19.38 68.71 25.58 66.35 26.89 61.65 C 28.94 56.42 24.09 49.79 18.38 51.14 Z" />
<path fill="#e94646" opacity="1.00" d=" M 86.85 37.34 C 87.77 37.19 89.62 36.88 90.54 36.73 C 91.26 43.09 91.30 49.50 91.11 55.89 C 95.90 52.63 100.76 49.48 105.76 46.55 C 106.41 47.72 107.05 48.90 107.70 50.07 C 104.42 52.41 101.11 54.68 97.82 57.00 C 100.99 60.72 104.21 64.39 107.47 68.03 C 107.32 68.71 107.01 70.06 106.86 70.74 C 106.20 70.79 104.87 70.90 104.21 70.95 C 100.61 66.89 97.01 62.83 93.27 58.89 C 90.85 62.68 91.15 67.30 90.00 71.50 C 86.22 71.05 86.59 66.91 86.54 64.06 C 86.63 55.15 86.46 46.24 86.85 37.34 Z" />
<path fill="#e94646" opacity="1.00" d=" M 217.83 37.17 C 219.14 37.19 220.46 37.21 221.78 37.23 C 223.37 48.33 218.98 60.69 225.26 70.74 C 222.78 70.83 220.29 70.90 217.80 70.94 C 217.41 59.69 217.37 48.42 217.83 37.17 Z" />
<path fill="#e94646" opacity="1.00" d=" M 227.85 37.33 C 228.77 37.18 230.61 36.88 231.53 36.73 C 231.89 40.45 232.13 44.18 232.31 47.91 C 237.78 46.67 244.79 46.38 248.10 51.86 C 251.25 57.73 250.86 65.21 248.97 71.43 C 243.22 69.94 246.58 62.41 245.51 58.12 C 246.21 52.11 237.95 48.44 234.05 53.10 C 230.31 58.43 233.99 65.66 230.98 71.34 C 227.56 71.47 227.59 67.49 227.56 65.06 C 227.60 55.82 227.47 46.57 227.85 37.33 Z" />
<path fill="#e94646" opacity="1.00" d=" M 284.72 36.74 C 285.53 36.89 287.15 37.18 287.96 37.33 C 288.22 40.26 288.41 43.21 288.62 46.15 C 290.06 47.23 293.52 47.28 292.92 49.71 C 291.51 50.56 289.97 51.18 288.48 51.85 C 288.42 56.22 287.88 60.68 288.85 64.99 C 290.53 66.42 292.61 67.22 294.56 68.22 C 294.42 69.02 294.14 70.61 294.00 71.40 C 290.59 70.64 285.80 70.51 284.58 66.48 C 283.01 60.72 285.31 54.08 281.33 49.01 C 283.55 45.29 284.30 41.00 284.72 36.74 Z" />
<path fill="#e94646" opacity="1.00" d=" M 45.39 47.22 C 53.80 45.14 62.11 54.03 59.35 62.29 C 57.26 71.09 44.68 74.08 38.85 67.15 C 32.45 60.80 36.43 48.53 45.39 47.22 M 46.38 51.14 C 39.74 52.18 38.01 61.99 43.47 65.59 C 47.38 68.71 53.58 66.35 54.89 61.65 C 56.94 56.42 52.10 49.80 46.38 51.14 Z" />
<path fill="#e94646" opacity="1.00" d=" M 67.41 49.42 C 72.38 45.22 83.11 46.11 83.42 54.03 C 79.27 53.09 74.59 49.34 70.49 52.35 C 65.79 55.45 66.14 63.40 71.13 66.04 C 75.19 68.31 79.41 64.84 83.37 63.96 C 83.14 71.91 72.37 72.77 67.42 68.58 C 61.12 64.16 61.12 53.85 67.41 49.42 Z" />
<path fill="#e94646" opacity="1.00" d=" M 112.89 50.83 C 117.33 45.86 125.88 45.69 130.43 50.61 C 133.20 53.15 133.52 57.08 134.02 60.58 C 127.42 61.18 120.79 60.88 114.19 61.29 C 116.02 63.56 117.74 67.00 121.14 66.87 C 124.37 66.47 127.29 64.89 130.38 63.98 C 130.27 71.40 120.68 72.60 115.60 69.34 C 109.09 65.86 107.71 56.05 112.89 50.83 M 114.18 56.71 C 119.27 57.11 124.39 57.11 129.48 56.69 C 127.37 54.11 125.06 50.51 121.20 51.02 C 117.80 51.10 116.01 54.35 114.18 56.71 Z" />
<path fill="#e94646" opacity="1.00" d=" M 137.38 47.22 C 143.21 48.18 149.15 46.60 154.94 48.06 C 154.66 49.27 154.38 50.48 154.10 51.69 C 150.33 51.39 145.42 50.19 142.83 53.84 C 139.51 59.09 142.57 65.83 139.95 71.35 C 138.49 71.30 136.95 70.42 136.90 68.81 C 136.12 61.65 136.37 54.36 137.38 47.22 Z" />
<path fill="#e94646" opacity="1.00" d=" M 176.75 47.55 C 182.05 45.64 191.14 48.50 189.60 55.46 C 185.06 52.50 178.65 48.38 174.43 54.18 C 179.22 56.25 184.83 56.86 188.94 60.25 C 192.46 64.44 188.04 70.01 183.46 70.66 C 178.27 72.15 169.63 69.23 171.37 62.54 C 175.86 65.51 182.22 69.57 186.44 63.86 C 181.69 61.82 176.20 61.15 172.06 57.90 C 168.48 54.07 172.34 48.39 176.75 47.55 Z" />
<path fill="#e94646" opacity="1.00" d=" M 193.53 47.45 C 194.44 47.31 196.27 47.04 197.19 46.90 C 199.52 51.97 201.72 57.11 203.87 62.26 C 206.41 57.22 208.71 52.06 210.87 46.84 C 211.79 47.00 213.61 47.32 214.52 47.47 C 211.35 59.12 205.68 69.90 201.11 81.04 C 200.17 80.92 198.30 80.68 197.37 80.56 C 198.47 75.18 202.66 69.64 199.84 64.14 C 197.46 58.69 194.85 53.29 193.53 47.45 Z" />
<path fill="#e94646" opacity="1.00" d=" M 256.89 50.83 C 261.33 45.86 269.88 45.70 274.43 50.60 C 277.19 53.16 277.52 57.08 278.02 60.58 C 271.43 61.18 264.79 60.87 258.19 61.29 C 260.02 63.56 261.74 67.01 265.14 66.87 C 268.37 66.47 271.29 64.89 274.39 63.98 C 274.26 71.40 264.67 72.60 259.59 69.34 C 253.08 65.85 251.71 56.04 256.89 50.83 M 258.18 56.71 C 263.27 57.11 268.39 57.11 273.48 56.69 C 271.37 54.11 269.06 50.51 265.20 51.02 C 261.80 51.10 260.01 54.35 258.18 56.71 Z" />
</g>
</svg>
